<svg width="91" height="23" viewBox="0 0 91 23" fill="none" xmlns="http://www.w3.org/2000/svg">
<path d="M1.53125 22.2344C0.854167 22.2344 0.515625 22.0417 0.515625 21.6562C0.515625 21.3542 0.703125 21.2031 1.07812 21.2031L1.84375 21.2812C2.46875 21.2812 2.88542 20.9323 3.09375 20.2344C3.28125 19.6406 3.375 18.5781 3.375 17.0469V6.04688C3.375 4.50521 3.30208 3.50521 3.15625 3.04688C3.01042 2.57812 2.83333 2.26042 2.625 2.09375C2.42708 1.91667 2.16667 1.82812 1.84375 1.82812L1.07812 1.90625C0.703125 1.90625 0.515625 1.75 0.515625 1.4375C0.515625 1.03125 0.854167 0.828125 1.53125 0.828125L3.57812 1.0625C4.01562 1.0625 4.40625 1.03125 4.75 0.96875L19.1406 17.7031V6.01562C19.1406 4.49479 19.0573 3.49479 18.8906 3.01562C18.7344 2.53646 18.5521 2.21354 18.3438 2.04688C18.1354 1.86979 17.8646 1.78125 17.5312 1.78125L16.7656 1.84375C16.3906 1.84375 16.2031 1.69271 16.2031 1.39062C16.2031 1.00521 16.5417 0.8125 17.2188 0.8125C17.4792 0.8125 17.8281 0.848958 18.2656 0.921875C18.8177 1.01562 19.3177 1.0625 19.7656 1.0625C20.2135 1.0625 20.651 1.02083 21.0781 0.9375C21.5052 0.854167 22.0052 0.8125 22.5781 0.8125C23.151 0.8125 23.4375 1.00521 23.4375 1.39062C23.4375 1.69271 23.25 1.84375 22.875 1.84375L22.1094 1.78125C21.474 1.78125 21.0521 2.13021 20.8438 2.82812C20.6667 3.38021 20.5781 4.44271 20.5781 6.01562V21.7969C20.5781 22.151 20.5469 22.3854 20.4844 22.5C20.4219 22.6146 20.3229 22.6719 20.1875 22.6719C20 22.6719 19.7031 22.4531 19.2969 22.0156L4.89062 5.32812V17.0469C4.89062 18.6198 4.95833 19.6354 5.09375 20.0938C5.23958 20.5417 5.41146 20.8542 5.60938 21.0312C5.81771 21.1979 6.08854 21.2812 6.42188 21.2812L7.17188 21.2031C7.54688 21.2031 7.73438 21.3542 7.73438 21.6562C7.73438 22.0417 7.43229 22.2344 6.82812 22.2344C6.23438 22.2344 5.70312 22.1927 5.23438 22.1094C4.77604 22.0365 4.32812 22 3.89062 22C3.45312 22 3.02083 22.0365 2.59375 22.1094C2.17708 22.1927 1.82292 22.2344 1.53125 22.2344ZM24.9062 15.0625C24.9062 14.0521 25.0885 13.0729 25.4531 12.125C25.8177 11.1771 26.3333 10.3438 27 9.625C28.4583 8.05208 30.276 7.26562 32.4531 7.26562C34.8698 7.26562 36.7292 7.98958 38.0312 9.4375C39.2083 10.75 39.7969 12.4531 39.7969 14.5469C39.7969 16.6615 39.0938 18.4896 37.6875 20.0312C36.25 21.6042 34.4375 22.3906 32.25 22.3906C29.8333 22.3906 27.9792 21.6667 26.6875 20.2188C25.5 18.9062 24.9062 17.1875 24.9062 15.0625ZM27.5469 14.4062C27.5469 15.4271 27.6875 16.3802 27.9688 17.2656C28.25 18.151 28.6354 18.8854 29.125 19.4688C30.0938 20.6562 31.3177 21.25 32.7969 21.25C34.1094 21.25 35.1771 20.7292 36 19.6875C36.8542 18.6042 37.2812 17.2083 37.2812 15.5C37.2812 13.2396 36.7604 11.4688 35.7188 10.1875C34.7396 9.01042 33.5104 8.42188 32.0312 8.42188C30.7188 8.42188 29.651 8.94271 28.8281 9.98438C27.974 11.0677 27.5469 12.5417 27.5469 14.4062ZM57.875 19.9375C58.1771 19.9375 58.3281 20.0729 58.3281 20.3438C58.3281 20.4896 58.2604 20.6146 58.125 20.7188C58 20.8229 57.8021 20.9323 57.5312 21.0469C57.2604 21.151 57.0469 21.2396 56.8906 21.3125C56.7344 21.3854 56.5885 21.4583 56.4531 21.5312C56.2344 21.6458 55.9948 21.7917 55.7344 21.9688C55.2969 22.25 54.9948 22.3906 54.8281 22.3906C54.6719 22.3906 54.526 22.349 54.3906 22.2656C54.2656 22.1927 54.1354 22.0521 54 21.8438C53.6875 21.3542 53.5208 20.6354 53.5 19.6875C52.6146 20.9375 51.4792 21.7344 50.0938 22.0781C49.6667 22.1823 49.1667 22.2344 48.5938 22.2344C48.0208 22.2344 47.4271 22.1406 46.8125 21.9531C46.2083 21.7552 45.6875 21.4375 45.25 21C44.3125 20.0938 43.8438 18.7188 43.8438 16.875V12.375C43.8438 11.375 43.7812 10.724 43.6562 10.4219C43.5417 10.1198 43.4115 9.91667 43.2656 9.8125C43.1302 9.70833 42.9479 9.63542 42.7188 9.59375C42.25 9.48958 42.0156 9.31771 42.0156 9.07812C42.0156 8.81771 42.2812 8.63542 42.8125 8.53125C43.9896 8.29167 44.7708 8.05729 45.1562 7.82812C45.7083 7.51562 46.0885 7.35938 46.2969 7.35938C46.5052 7.35938 46.6094 7.47917 46.6094 7.71875C46.6094 7.83333 46.5833 7.95312 46.5312 8.07812C46.3229 8.64062 46.2135 9.33854 46.2031 10.1719C46.1927 11.0052 46.1875 11.6979 46.1875 12.25V16.25C46.1875 18.4167 46.8854 19.7396 48.2812 20.2188C48.6979 20.3542 49.1094 20.4219 49.5156 20.4219C49.9219 20.4219 50.3021 20.375 50.6562 20.2812C51.0208 20.1771 51.375 20.0208 51.7188 19.8125C52.4583 19.3438 53.0469 18.6562 53.4844 17.75L53.5312 12.0312C53.5312 11.1458 53.4531 10.5781 53.2969 10.3281C53.1406 10.0677 52.9688 9.89583 52.7812 9.8125C52.5938 9.72917 52.2969 9.65625 51.8906 9.59375C51.4948 9.53125 51.2969 9.36458 51.2969 9.09375C51.2969 8.85417 51.5469 8.68229 52.0469 8.57812C52.5573 8.47396 53.026 8.34896 53.4531 8.20312C53.8802 8.04688 54.2552 7.90104 54.5781 7.76562C54.9115 7.63021 55.1823 7.51562 55.3906 7.42188C55.6094 7.31771 55.7604 7.26562 55.8438 7.26562C56.0833 7.26562 56.2031 7.38542 56.2031 7.625C56.2031 7.73958 56.1771 7.85938 56.125 7.98438C55.9167 8.54688 55.8073 9.26042 55.7969 10.125C55.7865 10.9896 55.7812 11.6979 55.7812 12.25V18.1094C55.7812 18.9115 55.849 19.4219 55.9844 19.6406C56.1927 19.9844 56.4896 20.1562 56.875 20.1562L57.875 19.9375ZM61.0469 22.2344C60.3594 22.2344 60.0156 22.0417 60.0156 21.6562C60.0156 21.3542 60.2083 21.2031 60.5938 21.2031L61.4219 21.2812C61.6615 21.2812 61.8594 21.2396 62.0156 21.1562C62.1719 21.0625 62.2917 20.8698 62.375 20.5781C62.5417 20.0469 62.625 18.8698 62.625 17.0469V12.375C62.625 11.3229 62.5521 10.6667 62.4062 10.4062C62.2708 10.1354 62.1042 9.95312 61.9062 9.85938C61.7083 9.75521 61.401 9.67188 60.9844 9.60938C60.5677 9.53646 60.3594 9.36979 60.3594 9.10938C60.3594 8.86979 60.625 8.69792 61.1562 8.59375C62.5 8.3125 63.3958 8.04688 63.8438 7.79688C64.4583 7.44271 64.8802 7.26562 65.1094 7.26562C65.349 7.26562 65.4688 7.38542 65.4688 7.625C65.4688 7.73958 65.4479 7.85938 65.4062 7.98438C65.2083 8.48438 65.0938 9.29167 65.0625 10.4062C65.6562 9.39583 66.3958 8.61979 67.2812 8.07812C68.1771 7.53646 69.0573 7.26562 69.9219 7.26562C70.7969 7.26562 71.5365 7.375 72.1406 7.59375C72.7448 7.8125 73.2604 8.14583 73.6875 8.59375C74.5625 9.53125 75 10.9115 75 12.7344V17.0469C75 18.8698 75.0625 19.9896 75.1875 20.4062C75.3125 20.8125 75.4531 21.0625 75.6094 21.1562C75.7656 21.2396 75.9635 21.2812 76.2031 21.2812L77.0156 21.2031C77.401 21.2031 77.5938 21.3542 77.5938 21.6562C77.5938 22.0417 77.2448 22.2344 76.5469 22.2344C76.1406 22.2344 75.7083 22.1927 75.25 22.1094C74.8021 22.0365 74.3177 22 73.7969 22C73.2865 22 72.7969 22.0365 72.3281 22.1094C71.8594 22.1927 71.4219 22.2344 71.0156 22.2344C70.3177 22.2344 69.9688 22.0417 69.9688 21.6562C69.9688 21.3542 70.1615 21.2031 70.5469 21.2031L71.3594 21.2812C71.599 21.2812 71.7969 21.2396 71.9531 21.1562C72.1094 21.0625 72.2344 20.8698 72.3281 20.5781C72.4948 20.0573 72.5781 18.8802 72.5781 17.0469V13.4844C72.5781 10.5052 71.4948 9.01562 69.3281 9.01562C67.7969 9.01562 66.6042 9.70833 65.75 11.0938C65.4479 11.6042 65.2135 12.2292 65.0469 12.9688V17.0469C65.0469 18.8698 65.1094 19.9896 65.2344 20.4062C65.3594 20.8125 65.5 21.0625 65.6562 21.1562C65.8125 21.2396 66.0104 21.2812 66.25 21.2812L67.0781 21.2031C67.4635 21.2031 67.6562 21.3542 67.6562 21.6562C67.6562 22.0417 67.3125 22.2344 66.625 22.2344C66.2292 22.2344 65.8073 22.1927 65.3594 22.1094C64.9219 22.0365 64.4271 22 63.875 22C63.3229 22 62.8125 22.0365 62.3438 22.1094C61.8854 22.1927 61.4531 22.2344 61.0469 22.2344ZM80.7344 21.1562C80.2552 20.8125 79.8802 20.4375 79.6094 20.0312C79.3385 19.6146 79.2031 19.2917 79.2031 19.0625C79.2031 18.8229 79.2344 18.6458 79.2969 18.5312C79.3698 18.4062 79.4635 18.2917 79.5781 18.1875C79.849 17.9271 80.1094 17.7969 80.3594 17.7969C80.6198 17.7969 80.8177 17.8594 80.9531 17.9844C81.0885 18.099 81.2135 18.3333 81.3281 18.6875C81.4531 19.0312 81.625 19.3646 81.8438 19.6875C82.0729 20.0104 82.3438 20.2917 82.6562 20.5312C83.3333 21.0417 84.1615 21.2969 85.1406 21.2969C86.0052 21.2969 86.7396 21.0833 87.3438 20.6562C87.9792 20.2188 88.2969 19.6719 88.2969 19.0156C88.2969 18.349 88.0104 17.7656 87.4375 17.2656C86.8229 16.7344 85.9115 16.2292 84.7031 15.75C83.4948 15.2604 82.6354 14.849 82.125 14.5156C81.6146 14.1823 81.1979 13.8281 80.875 13.4531C80.2604 12.7344 79.9531 11.9115 79.9531 10.9844C79.9531 9.92188 80.4323 9.03646 81.3906 8.32812C82.3594 7.61979 83.5729 7.26562 85.0312 7.26562C86.2917 7.26562 87.3542 7.53125 88.2188 8.0625C88.9688 8.53125 89.3438 9.02604 89.3438 9.54688C89.3438 9.81771 89.2031 10.0521 88.9219 10.25C88.651 10.4375 88.3906 10.5312 88.1406 10.5312C87.901 10.5312 87.7135 10.4844 87.5781 10.3906C87.4427 10.2865 87.2396 10.026 86.9688 9.60938C86.4375 8.78646 85.6302 8.375 84.5469 8.375C83.3281 8.375 82.5208 8.73958 82.125 9.46875C82.0104 9.67708 81.9531 9.90104 81.9531 10.1406C81.9531 10.3802 82 10.6146 82.0938 10.8438C82.1979 11.0625 82.3854 11.2917 82.6562 11.5312C83.2292 12.0104 84.2812 12.5677 85.8125 13.2031C88.8125 14.4427 90.3125 16.0312 90.3125 17.9688C90.3125 19.2708 89.7865 20.3333 88.7344 21.1562C87.6719 21.9792 86.3073 22.3906 84.6406 22.3906C83.1615 22.3906 81.8594 21.9792 80.7344 21.1562Z" fill="#233142"/>
</svg>
