<svg width="204" height="31" viewBox="0 0 204 31" fill="none" xmlns="http://www.w3.org/2000/svg">
<path d="M1.4375 24.2344C0.760417 24.2344 0.421875 24.0417 0.421875 23.6562C0.421875 23.3542 0.609375 23.2031 0.984375 23.2031L1.75 23.2812C2.375 23.2812 2.79688 22.9323 3.01562 22.2344C3.19271 21.6406 3.28125 20.5781 3.28125 19.0469V8.01562C3.28125 6.48438 3.20833 5.48438 3.0625 5.01562C2.91667 4.53646 2.73958 4.21354 2.53125 4.04688C2.33333 3.86979 2.07292 3.78125 1.75 3.78125L0.984375 3.84375C0.609375 3.84375 0.421875 3.69271 0.421875 3.39062C0.421875 3.00521 0.708333 2.8125 1.28125 2.8125C1.85417 2.8125 2.39583 2.85417 2.90625 2.9375C3.42708 3.02083 4 3.0625 4.625 3.0625C5.26042 3.0625 5.81771 3.02083 6.29688 2.9375C6.78646 2.85417 7.21354 2.8125 7.57812 2.8125C9.80729 2.8125 11.6094 3.48958 12.9844 4.84375C14.2344 6.08333 14.8594 7.57812 14.8594 9.32812C14.8594 10.9427 14.2344 12.349 12.9844 13.5469C11.7552 14.7135 10.349 15.2969 8.76562 15.2969C7.54688 15.2969 6.71354 15.0573 6.26562 14.5781C6.13021 14.4323 6.0625 14.276 6.0625 14.1094C6.0625 13.9323 6.10938 13.8021 6.20312 13.7188C6.30729 13.625 6.43229 13.5781 6.57812 13.5781C6.72396 13.5781 6.92708 13.6771 7.1875 13.875C7.59375 14.1667 8.09896 14.3125 8.70312 14.3125C9.30729 14.3125 9.81771 14.1979 10.2344 13.9688C10.6615 13.7292 11.0208 13.3958 11.3125 12.9688C11.9167 12.0833 12.2188 10.8906 12.2188 9.39062C12.2188 7.70312 11.75 6.35938 10.8125 5.35938C9.90625 4.39062 8.72917 3.90625 7.28125 3.90625C6.75 3.90625 6.35938 3.97917 6.10938 4.125C5.85938 4.27083 5.73438 4.52083 5.73438 4.875V19.0469C5.73438 20.6198 5.80208 21.6354 5.9375 22.0938C6.08333 22.5417 6.25521 22.8542 6.45312 23.0312C6.66146 23.1979 6.93229 23.2812 7.26562 23.2812L8.01562 23.2031C8.39062 23.2031 8.57812 23.3542 8.57812 23.6562C8.57812 24.0417 8.24479 24.2344 7.57812 24.2344C7.23438 24.2344 6.86979 24.2031 6.48438 24.1406C5.23438 23.9427 4.16146 23.9062 3.26562 24.0312C2.38021 24.1667 1.77083 24.2344 1.4375 24.2344ZM31.6094 21.9062C31.9115 21.9062 32.0625 22.0469 32.0625 22.3281C32.0625 22.599 31.7604 22.8594 31.1562 23.1094C30.5521 23.3594 30.1302 23.5885 29.8906 23.7969C29.651 23.9948 29.474 24.1406 29.3594 24.2344C29.2448 24.3385 29.1094 24.3906 28.9531 24.3906C28.6406 24.3906 28.3802 24.2604 28.1719 24C27.9635 23.7396 27.6823 23.1823 27.3281 22.3281C26.7344 23.0052 26.0104 23.5208 25.1562 23.875C24.3125 24.2188 23.474 24.3906 22.6406 24.3906C21.0677 24.3906 19.849 23.9896 18.9844 23.1875C18.1198 22.3854 17.6875 21.2865 17.6875 19.8906C17.6875 18.4948 18.3385 17.3646 19.6406 16.5C20.9531 15.625 22.625 15.1875 24.6562 15.1875C25.2604 15.1875 26.0573 15.2917 27.0469 15.5V14.2812C27.0469 11.6042 25.9167 10.2656 23.6562 10.2656C22.4583 10.2656 21.5781 10.8177 21.0156 11.9219C20.526 12.9115 20.0469 13.4062 19.5781 13.4062C19.2344 13.4062 18.9323 13.3073 18.6719 13.1094C18.4219 12.9115 18.2969 12.6615 18.2969 12.3594C18.2969 12.0573 18.4531 11.724 18.7656 11.3594C19.0781 10.9844 19.4948 10.6458 20.0156 10.3438C21.2448 9.625 22.5938 9.26562 24.0625 9.26562C26.6667 9.26562 28.349 10.1146 29.1094 11.8125C29.3906 12.4167 29.5312 13.1562 29.5312 14.0312V20.2656C29.5312 21.0677 29.6094 21.5833 29.7656 21.8125C29.9219 22.0417 30.1406 22.1562 30.4219 22.1562C30.7031 22.1562 30.9323 22.1146 31.1094 22.0312C31.2865 21.9479 31.4531 21.9062 31.6094 21.9062ZM27.0469 16.9531C26.2969 16.526 25.349 16.3125 24.2031 16.3125C23.0573 16.3125 22.1354 16.599 21.4375 17.1719C20.75 17.7448 20.4062 18.5156 20.4062 19.4844C20.4062 20.4427 20.6719 21.2448 21.2031 21.8906C21.7344 22.526 22.4167 22.8438 23.25 22.8438C25.0312 22.8438 26.3125 22.2604 27.0938 21.0938C27.0625 20.8021 27.0469 20.4792 27.0469 20.125V16.9531ZM34.0938 24.2344C33.3958 24.2344 33.0469 24.0417 33.0469 23.6562C33.0469 23.3542 33.2396 23.2031 33.625 23.2031L34.4062 23.2812C34.6458 23.2812 34.8438 23.2396 35 23.1562C35.1562 23.0625 35.276 22.8698 35.3594 22.5781C35.526 22.0469 35.6094 20.8698 35.6094 19.0469V14.375C35.6094 13.3125 35.5417 12.651 35.4062 12.3906C35.2812 12.1198 35.125 11.9375 34.9375 11.8438C34.7604 11.7396 34.4635 11.6562 34.0469 11.5938C33.6406 11.5312 33.4375 11.3698 33.4375 11.1094C33.4375 10.8698 33.7031 10.6979 34.2344 10.5938C35.474 10.3333 36.3281 10.0729 36.7969 9.8125C37.4323 9.44792 37.8646 9.26562 38.0938 9.26562C38.3333 9.26562 38.4531 9.38542 38.4531 9.625C38.4531 9.73958 38.4271 9.85938 38.375 9.98438C38.3333 10.1094 38.2865 10.2604 38.2344 10.4375C38.151 10.7917 38.0885 11.4583 38.0469 12.4375C38.9531 10.9167 40.0469 9.96875 41.3281 9.59375C41.7031 9.47917 42.1198 9.42188 42.5781 9.42188C43.0469 9.42188 43.4583 9.58854 43.8125 9.92188C44.1771 10.2552 44.3594 10.6094 44.3594 10.9844C44.3594 11.3594 44.3177 11.6354 44.2344 11.8125C44.151 11.9896 44.0469 12.1406 43.9219 12.2656C43.651 12.5365 43.4062 12.6719 43.1875 12.6719C42.9792 12.6719 42.8177 12.6198 42.7031 12.5156C42.5885 12.401 42.4583 12.1979 42.3125 11.9062C42.0521 11.3854 41.7604 11.125 41.4375 11.125C41.1146 11.125 40.8073 11.1979 40.5156 11.3438C40.224 11.4792 39.9323 11.6875 39.6406 11.9688C39.0052 12.5625 38.4688 13.3698 38.0312 14.3906V19.0469C38.0312 21.026 38.0833 22.1927 38.1875 22.5469C38.3021 22.8906 38.4375 23.099 38.5938 23.1719C38.7604 23.2344 38.9844 23.2656 39.2656 23.2656L40.6562 23.1406C40.8646 23.1406 41.0312 23.1927 41.1562 23.2969C41.2812 23.3906 41.3438 23.5104 41.3438 23.6562C41.3438 24.0417 40.9635 24.2344 40.2031 24.2344L36.9062 24C36.375 24 35.8698 24.0365 35.3906 24.1094C34.9219 24.1927 34.4896 24.2344 34.0938 24.2344ZM54.7031 10.8125C54.7031 11.0938 54.5365 11.2344 54.2031 11.2344L49.7656 11.1875V19.8438C49.7656 21.4583 50.1562 22.4167 50.9375 22.7188C51.1771 22.8125 51.4583 22.8594 51.7812 22.8594C52.1042 22.8594 52.3958 22.8073 52.6562 22.7031C52.9271 22.5885 53.1667 22.4688 53.375 22.3438C53.5833 22.2188 53.7604 22.1042 53.9062 22C54.0521 21.8854 54.1875 21.8281 54.3125 21.8281C54.4479 21.8281 54.5677 21.901 54.6719 22.0469C54.776 22.1927 54.8281 22.3385 54.8281 22.4844C54.8281 22.849 54.3646 23.2865 53.4375 23.7969C52.7292 24.1927 51.8385 24.3906 50.7656 24.3906C49.6927 24.3906 48.8542 24.0104 48.25 23.25C47.6458 22.4792 47.3438 21.4167 47.3438 20.0625V11.1406H46.3906C45.6406 11.1406 45.2656 10.9479 45.2656 10.5625C45.2656 10.2812 45.474 10.0885 45.8906 9.98438C46.3073 9.88021 46.6667 9.69792 46.9688 9.4375C47.2708 9.16667 47.5156 8.86458 47.7031 8.53125C47.901 8.1875 48.0573 7.83333 48.1719 7.46875C48.2865 7.10417 48.3906 6.77083 48.4844 6.46875C48.7135 5.78125 48.974 5.4375 49.2656 5.4375C49.599 5.4375 49.7656 5.73438 49.7656 6.32812V9.85938L54.1562 9.76562C54.375 9.76562 54.5469 10.026 54.6719 10.5469C54.6927 10.6615 54.7031 10.75 54.7031 10.8125ZM58.25 23.1562C57.7708 22.8125 57.3958 22.4375 57.125 22.0312C56.8542 21.6146 56.7188 21.2917 56.7188 21.0625C56.7188 20.8229 56.75 20.6458 56.8125 20.5312C56.8854 20.4062 56.9792 20.2917 57.0938 20.1875C57.3646 19.9271 57.625 19.7969 57.875 19.7969C58.1354 19.7969 58.3333 19.8594 58.4688 19.9844C58.6042 20.099 58.7292 20.3333 58.8438 20.6875C58.9688 21.0312 59.1406 21.3646 59.3594 21.6875C59.5885 22.0104 59.8594 22.2917 60.1719 22.5312C60.849 23.0417 61.6771 23.2969 62.6562 23.2969C63.5208 23.2969 64.2552 23.0833 64.8594 22.6562C65.4948 22.2188 65.8125 21.6719 65.8125 21.0156C65.8125 20.349 65.526 19.7656 64.9531 19.2656C64.3385 18.7344 63.4271 18.2292 62.2188 17.75C61.0104 17.2604 60.151 16.849 59.6406 16.5156C59.1302 16.1823 58.7135 15.8281 58.3906 15.4531C57.776 14.7344 57.4688 13.9115 57.4688 12.9844C57.4688 11.9219 57.9479 11.0365 58.9062 10.3281C59.875 9.61979 61.0885 9.26562 62.5469 9.26562C63.8073 9.26562 64.8698 9.53125 65.7344 10.0625C66.4844 10.5312 66.8594 11.026 66.8594 11.5469C66.8594 11.8177 66.7188 12.0521 66.4375 12.25C66.1667 12.4375 65.9062 12.5312 65.6562 12.5312C65.4167 12.5312 65.2292 12.4844 65.0938 12.3906C64.9583 12.2865 64.7552 12.026 64.4844 11.6094C63.9531 10.7865 63.1458 10.375 62.0625 10.375C60.8438 10.375 60.0365 10.7396 59.6406 11.4688C59.526 11.6771 59.4688 11.901 59.4688 12.1406C59.4688 12.3802 59.5156 12.6146 59.6094 12.8438C59.7135 13.0625 59.901 13.2917 60.1719 13.5312C60.7448 14.0104 61.7969 14.5677 63.3281 15.2031C66.3281 16.4427 67.8281 18.0312 67.8281 19.9688C67.8281 21.2708 67.3021 22.3333 66.25 23.1562C65.1875 23.9792 63.8229 24.3906 62.1562 24.3906C60.6771 24.3906 59.375 23.9792 58.25 23.1562ZM70.6719 13.4219C70.6719 11.849 70.9635 10.4062 71.5469 9.09375C72.1406 7.77083 72.9375 6.63542 73.9375 5.6875C74.9479 4.72917 76.1146 3.98958 77.4375 3.46875C78.7604 2.9375 80.1875 2.67188 81.7188 2.67188C83.25 2.67188 84.6719 2.95312 85.9844 3.51562C87.2969 4.06771 88.4219 4.83333 89.3594 5.8125C91.3281 7.88542 92.3125 10.5156 92.3125 13.7031C92.3125 16.724 91.2969 19.25 89.2656 21.2812C87.1927 23.3542 84.5573 24.3906 81.3594 24.3906C78.2344 24.3906 75.6615 23.3438 73.6406 21.25C71.6615 19.1875 70.6719 16.5781 70.6719 13.4219ZM73.3438 12.5312C73.3438 13.8854 73.5625 15.2188 74 16.5312C74.4479 17.8333 75.0781 18.9688 75.8906 19.9375C77.6302 22.0417 79.8281 23.0938 82.4844 23.0938C84.5365 23.0938 86.2188 22.3229 87.5312 20.7812C88.8854 19.1979 89.5625 17.1146 89.5625 14.5312C89.5625 11.4792 88.7448 8.94792 87.1094 6.9375C85.4844 4.95833 83.4271 3.96875 80.9375 3.96875C78.8854 3.96875 77.1198 4.75 75.6406 6.3125C74.1094 7.9375 73.3438 10.0104 73.3438 12.5312ZM96.3438 24.2344C95.6458 24.2344 95.2969 24.0417 95.2969 23.6562C95.2969 23.3542 95.4896 23.2031 95.875 23.2031L96.5 23.2812C96.7396 23.2812 96.9323 23.2396 97.0781 23.1562C97.2344 23.0625 97.349 22.8698 97.4219 22.5781C97.5573 22.0885 97.625 20.9115 97.625 19.0469V10.8906L96.1562 10.8594C95.9792 10.8594 95.8906 10.7604 95.8906 10.5625C95.8906 10.1771 95.9531 9.92708 96.0781 9.8125C96.2135 9.6875 96.3229 9.625 96.4062 9.625H97.625V9.57812C97.625 5.21354 98.5417 2.5 100.375 1.4375C101.01 1.0625 101.771 0.875 102.656 0.875C103.417 0.875 103.984 0.958333 104.359 1.125C104.745 1.28125 105.026 1.41146 105.203 1.51562C105.38 1.60938 105.547 1.71875 105.703 1.84375C106.057 2.15625 106.234 2.46354 106.234 2.76562C106.234 3.05729 106.135 3.29167 105.938 3.46875C105.74 3.63542 105.542 3.71875 105.344 3.71875C105.146 3.71875 104.99 3.71354 104.875 3.70312C104.76 3.68229 104.641 3.63542 104.516 3.5625C104.266 3.42708 104.021 3.22917 103.781 2.96875C103.552 2.69792 103.396 2.52083 103.312 2.4375C103.24 2.34375 103.151 2.26562 103.047 2.20312C102.807 2.06771 102.474 2 102.047 2C101.63 2 101.297 2.15104 101.047 2.45312C100.807 2.74479 100.62 3.19792 100.484 3.8125C100.276 4.80208 100.172 6.64583 100.172 9.34375V9.625H103.453C103.786 9.625 103.953 9.76562 103.953 10.0469C103.953 10.3802 103.88 10.625 103.734 10.7812C103.599 10.9271 103.49 11 103.406 11L100.172 10.9375V19.0156C100.172 20.9427 100.234 22.0938 100.359 22.4688C100.484 22.8438 100.63 23.0677 100.797 23.1406C100.974 23.2135 101.203 23.25 101.484 23.25L103.031 23.1406C103.5 23.1406 103.734 23.3229 103.734 23.6875C103.734 24.0521 103.354 24.2344 102.594 24.2344L99 24C98.4688 24 97.9792 24.0365 97.5312 24.1094C97.0938 24.1927 96.6979 24.2344 96.3438 24.2344ZM116.906 3.29688L117.562 3.20312C117.854 3.20312 118.016 3.44271 118.047 3.92188C118.078 4.39062 118.12 4.77604 118.172 5.07812C118.224 5.38021 118.276 5.65104 118.328 5.89062C118.38 6.13021 118.422 6.33333 118.453 6.5C118.495 6.66667 118.516 6.80729 118.516 6.92188C118.516 7.02604 118.453 7.13021 118.328 7.23438C118.214 7.32812 118.089 7.375 117.953 7.375C117.714 7.375 117.479 7.11979 117.25 6.60938C116.812 5.64062 116.448 5.01562 116.156 4.73438C115.479 4.13021 114.484 3.82812 113.172 3.82812C111.339 3.82812 110.109 4.375 109.484 5.46875C109.286 5.82292 109.188 6.25521 109.188 6.76562C109.188 7.27604 109.307 7.75521 109.547 8.20312C109.797 8.65104 110.172 9.10417 110.672 9.5625C111.182 10.0104 111.828 10.4948 112.609 11.0156C113.391 11.5365 114.229 12.1042 115.125 12.7188C116.021 13.3333 116.719 13.8906 117.219 14.3906C117.719 14.8802 118.125 15.3698 118.438 15.8594C119.031 16.7865 119.328 17.6875 119.328 18.5625C119.328 19.4375 119.203 20.2188 118.953 20.9062C118.703 21.5833 118.297 22.1771 117.734 22.6875C116.516 23.8229 114.714 24.3906 112.328 24.3906C111.12 24.3906 109.786 24.125 108.328 23.5938C107.995 23.4792 107.786 23.349 107.703 23.2031C107.609 23.026 107.526 22.6927 107.453 22.2031C107.38 21.7135 107.292 21.2708 107.188 20.875C107.094 20.4792 107.005 20.125 106.922 19.8125L106.703 19C106.641 18.7604 106.609 18.5625 106.609 18.4062C106.609 18.0312 106.75 17.8438 107.031 17.8438C107.406 17.8438 107.677 18.1302 107.844 18.7031C108.135 19.724 108.396 20.3854 108.625 20.6875C109.51 21.8542 110.536 22.6146 111.703 22.9688C112.047 23.0729 112.505 23.125 113.078 23.125C113.661 23.125 114.229 23.0417 114.781 22.875C115.344 22.6979 115.807 22.4635 116.172 22.1719C116.859 21.6094 117.203 20.9271 117.203 20.125C117.203 19.3125 116.943 18.5833 116.422 17.9375C115.911 17.2812 115.292 16.7135 114.562 16.2344C113.844 15.7448 113.302 15.3854 112.938 15.1562C112.583 14.9271 112.25 14.7083 111.938 14.5C109.302 12.7396 107.745 10.9896 107.266 9.25C107.141 8.79167 107.078 8.26562 107.078 7.67188C107.078 7.07812 107.224 6.46875 107.516 5.84375C107.807 5.21875 108.224 4.67188 108.766 4.20312C109.964 3.18229 111.51 2.67188 113.406 2.67188C114.271 2.67188 114.964 2.76042 115.484 2.9375C116.214 3.17708 116.688 3.29688 116.906 3.29688ZM122.062 29.4844L123.375 29.5938C123.51 29.5938 123.62 29.5625 123.703 29.5C123.786 29.4375 123.854 29.2917 123.906 29.0625C124 28.6458 124.047 27.7292 124.047 26.3125V14.3594C124.047 13.3802 123.969 12.7448 123.812 12.4531C123.656 12.151 123.49 11.9479 123.312 11.8438C123.135 11.7396 122.849 11.6562 122.453 11.5938C122.068 11.5312 121.875 11.3698 121.875 11.1094C121.875 10.8698 122.141 10.6979 122.672 10.5938C123.922 10.3333 124.781 10.0677 125.25 9.79688C125.885 9.44271 126.312 9.26562 126.531 9.26562C126.771 9.26562 126.891 9.38542 126.891 9.625C126.891 9.73958 126.865 9.85938 126.812 9.98438C126.771 10.1094 126.724 10.2552 126.672 10.4219C126.599 10.6927 126.542 11.2083 126.5 11.9688C127.771 10.1667 129.375 9.26562 131.312 9.26562C133.281 9.26562 134.849 9.96875 136.016 11.375C137.141 12.7396 137.703 14.5104 137.703 16.6875C137.703 18.8229 137.005 20.6354 135.609 22.125C134.203 23.6354 132.464 24.3906 130.391 24.3906C128.891 24.3906 127.583 23.9948 126.469 23.2031V26.3125C126.469 28.2812 126.552 29.3438 126.719 29.5C126.792 29.5625 126.885 29.5938 127 29.5938L129.094 29.4219C129.302 29.4219 129.469 29.4844 129.594 29.6094C129.719 29.7448 129.781 29.8854 129.781 30.0312C129.781 30.4792 129.401 30.7031 128.641 30.7031L125.344 30.4688C124.812 30.4688 124.307 30.5052 123.828 30.5781C123.359 30.6615 122.927 30.7031 122.531 30.7031C122.135 30.7031 121.859 30.6302 121.703 30.4844C121.557 30.349 121.484 30.2031 121.484 30.0469C121.484 29.8906 121.536 29.7552 121.641 29.6406C121.745 29.5365 121.885 29.4844 122.062 29.4844ZM126.469 20.5469C127.083 21.8177 128.099 22.651 129.516 23.0469C129.964 23.1719 130.443 23.2344 130.953 23.2344C131.464 23.2344 131.974 23.125 132.484 22.9062C133.005 22.6771 133.458 22.3281 133.844 21.8594C134.688 20.8281 135.109 19.3906 135.109 17.5469C135.109 15.4948 134.667 13.8542 133.781 12.625C132.948 11.4583 131.901 10.875 130.641 10.875C129.349 10.875 128.214 11.4375 127.234 12.5625C126.932 12.9167 126.677 13.3125 126.469 13.75V20.5469ZM142.141 22.25C141.536 21.5729 141.068 20.776 140.734 19.8594C140.411 18.9427 140.25 17.9271 140.25 16.8125C140.25 15.6875 140.443 14.6562 140.828 13.7188C141.214 12.7812 141.745 11.9792 142.422 11.3125C143.828 9.92708 145.562 9.23438 147.625 9.23438C149.333 9.23438 150.714 9.79688 151.766 10.9219C152.766 12.0052 153.266 13.3438 153.266 14.9375C153.266 15.4583 153.193 15.8177 153.047 16.0156C152.911 16.2031 152.74 16.3177 152.531 16.3594C152.323 16.3906 152.036 16.4219 151.672 16.4531C151.307 16.474 150.865 16.5 150.344 16.5312C149.823 16.5625 149.24 16.5938 148.594 16.625C147.958 16.6562 147.307 16.6927 146.641 16.7344C145.109 16.8281 143.88 16.9219 142.953 17.0156C143.182 19.8177 144.255 21.6354 146.172 22.4688C146.797 22.7396 147.464 22.875 148.172 22.875C149.672 22.875 150.859 22.4375 151.734 21.5625C152.109 21.1875 152.396 21 152.594 21C152.969 21 153.156 21.224 153.156 21.6719C153.156 21.901 153 22.1771 152.688 22.5C152.375 22.8229 151.927 23.1562 151.344 23.5C150.312 24.0938 149.109 24.3906 147.734 24.3906C146.359 24.3906 145.234 24.2031 144.359 23.8281C143.495 23.4427 142.755 22.9167 142.141 22.25ZM142.922 15.8594C147.807 15.6094 150.38 15.3438 150.641 15.0625C150.734 14.9583 150.781 14.651 150.781 14.1406C150.781 13.6302 150.682 13.1354 150.484 12.6562C150.286 12.1667 150.021 11.75 149.688 11.4062C149 10.7083 148.146 10.3594 147.125 10.3594C145.969 10.3594 144.995 10.8438 144.203 11.8125C143.37 12.8229 142.943 14.1719 142.922 15.8594ZM157.547 22.25C156.943 21.5729 156.474 20.776 156.141 19.8594C155.818 18.9427 155.656 17.9271 155.656 16.8125C155.656 15.6875 155.849 14.6562 156.234 13.7188C156.62 12.7812 157.151 11.9792 157.828 11.3125C159.234 9.92708 160.969 9.23438 163.031 9.23438C164.74 9.23438 166.12 9.79688 167.172 10.9219C168.172 12.0052 168.672 13.3438 168.672 14.9375C168.672 15.4583 168.599 15.8177 168.453 16.0156C168.318 16.2031 168.146 16.3177 167.938 16.3594C167.729 16.3906 167.443 16.4219 167.078 16.4531C166.714 16.474 166.271 16.5 165.75 16.5312C165.229 16.5625 164.646 16.5938 164 16.625C163.365 16.6562 162.714 16.6927 162.047 16.7344C160.516 16.8281 159.286 16.9219 158.359 17.0156C158.589 19.8177 159.661 21.6354 161.578 22.4688C162.203 22.7396 162.87 22.875 163.578 22.875C165.078 22.875 166.266 22.4375 167.141 21.5625C167.516 21.1875 167.802 21 168 21C168.375 21 168.562 21.224 168.562 21.6719C168.562 21.901 168.406 22.1771 168.094 22.5C167.781 22.8229 167.333 23.1562 166.75 23.5C165.719 24.0938 164.516 24.3906 163.141 24.3906C161.766 24.3906 160.641 24.2031 159.766 23.8281C158.901 23.4427 158.161 22.9167 157.547 22.25ZM158.328 15.8594C163.214 15.6094 165.786 15.3438 166.047 15.0625C166.141 14.9583 166.188 14.651 166.188 14.1406C166.188 13.6302 166.089 13.1354 165.891 12.6562C165.693 12.1667 165.427 11.75 165.094 11.4062C164.406 10.7083 163.552 10.3594 162.531 10.3594C161.375 10.3594 160.401 10.8438 159.609 11.8125C158.776 12.8229 158.349 14.1719 158.328 15.8594ZM171.094 16.8438C171.094 15.7396 171.292 14.7188 171.688 13.7812C172.094 12.8333 172.641 12.026 173.328 11.3594C174.786 9.96354 176.625 9.26562 178.844 9.26562C180.156 9.30729 181.297 9.61458 182.266 10.1875C183.255 10.7604 183.771 11.4635 183.812 12.2969C183.812 12.7448 183.516 13.0417 182.922 13.1875C182.766 13.2188 182.625 13.2344 182.5 13.2344C182.021 13.2344 181.63 12.9062 181.328 12.25C180.734 11.0104 179.729 10.3906 178.312 10.3906C177.062 10.3906 176.016 10.9062 175.172 11.9375C174.276 13.0312 173.828 14.474 173.828 16.2656C173.828 18.2552 174.292 19.8542 175.219 21.0625C176.188 22.3333 177.51 22.9688 179.188 22.9688C180.333 22.9688 181.339 22.5312 182.203 21.6562C182.578 21.2812 182.859 21.0938 183.047 21.0938C183.432 21.0938 183.625 21.2865 183.625 21.6719C183.625 22.0469 183.255 22.5052 182.516 23.0469C181.318 23.9427 179.844 24.3906 178.094 24.3906C176 24.3906 174.297 23.6771 172.984 22.25C171.724 20.8646 171.094 19.0625 171.094 16.8438ZM186.734 24.2344C186.047 24.2344 185.703 24.0417 185.703 23.6562C185.703 23.3542 185.896 23.2031 186.281 23.2031L187.062 23.2812C187.302 23.2812 187.5 23.2396 187.656 23.1562C187.812 23.0625 187.932 22.8698 188.016 22.5781C188.182 22.0469 188.266 20.8698 188.266 19.0469V6.76562C188.266 5.77604 188.188 5.13542 188.031 4.84375C187.875 4.54167 187.708 4.33854 187.531 4.23438C187.354 4.13021 187.068 4.04688 186.672 3.98438C186.286 3.92188 186.094 3.76042 186.094 3.5C186.094 3.26042 186.359 3.08854 186.891 2.98438C188.13 2.72396 188.984 2.46354 189.453 2.20312C190.089 1.83854 190.521 1.65625 190.75 1.65625C190.99 1.65625 191.109 1.77604 191.109 2.01562C191.109 2.13021 191.089 2.25 191.047 2.375C190.828 2.9375 190.714 3.65104 190.703 4.51562C190.693 5.38021 190.688 6.08854 190.688 6.64062V12.7344C191.552 11.0781 192.776 10 194.359 9.5C194.859 9.34375 195.359 9.26562 195.859 9.26562C197.38 9.26562 198.557 9.70833 199.391 10.5938C200.224 11.4792 200.641 12.8594 200.641 14.7344V19.0469C200.641 20.8698 200.703 21.9896 200.828 22.4062C200.953 22.8125 201.094 23.0625 201.25 23.1562C201.406 23.2396 201.604 23.2812 201.844 23.2812L202.625 23.2031C203.01 23.2031 203.203 23.3542 203.203 23.6562C203.203 24.0417 202.854 24.2344 202.156 24.2344C201.76 24.2344 201.339 24.1927 200.891 24.1094C200.443 24.0365 199.958 24 199.438 24C198.927 24 198.438 24.0365 197.969 24.1094C197.51 24.1927 197.083 24.2344 196.688 24.2344C195.99 24.2344 195.641 24.0417 195.641 23.6562C195.641 23.3542 195.833 23.2031 196.219 23.2031L197 23.2812C197.24 23.2812 197.438 23.2396 197.594 23.1562C197.75 23.0625 197.875 22.8698 197.969 22.5781C198.135 22.0573 198.219 20.8802 198.219 19.0469V15.4844C198.219 12.5156 197.125 11.0312 194.938 11.0312C193.354 11.0312 192.151 11.8542 191.328 13.5C191.036 14.0729 190.823 14.75 190.688 15.5312V19.0469C190.688 20.8698 190.75 21.9896 190.875 22.4062C191 22.8125 191.141 23.0625 191.297 23.1562C191.453 23.2396 191.651 23.2812 191.891 23.2812L192.672 23.2031C193.057 23.2031 193.25 23.3542 193.25 23.6562C193.25 24.0417 192.906 24.2344 192.219 24.2344C191.823 24.2344 191.411 24.1927 190.984 24.1094C190.557 24.0365 190.068 24 189.516 24C188.964 24 188.458 24.0365 188 24.1094C187.552 24.1927 187.13 24.2344 186.734 24.2344Z" fill="#233142"/>
</svg>
