<svg width="254" height="32" viewBox="0 0 254 32" fill="none" xmlns="http://www.w3.org/2000/svg">
<path d="M4.4375 18.9688C3.83333 19.4792 3.53125 19.8125 3.53125 19.9688C3.53125 20.125 3.56771 20.2656 3.64062 20.3906C3.72396 20.5052 3.89583 20.625 4.15625 20.75C4.75 21.0104 5.76562 21.224 7.20312 21.3906C8.65104 21.5469 9.85938 21.7656 10.8281 22.0469C11.7969 22.3281 12.5833 22.6667 13.1875 23.0625C14.3333 23.8125 14.9062 24.8542 14.9062 26.1875C14.9062 27.6146 14.151 28.849 12.6406 29.8906C11.1198 30.9323 9.31771 31.4531 7.23438 31.4531C5.14062 31.4531 3.4375 31.026 2.125 30.1719C0.802083 29.3073 0.140625 28.2135 0.140625 26.8906C0.140625 25.2031 1.25521 23.9271 3.48438 23.0625C2.26562 22.6979 1.55208 22.2292 1.34375 21.6562C1.27083 21.4792 1.23438 21.2969 1.23438 21.1094C1.23438 20.5885 1.97396 19.7135 3.45312 18.4844C1.93229 17.5156 1.17188 16.1146 1.17188 14.2812C1.19271 12.875 1.73958 11.6979 2.8125 10.75C3.9375 9.76042 5.39583 9.26562 7.1875 9.26562C7.96875 9.26562 8.73958 9.40625 9.5 9.6875C9.95833 8.65625 10.6042 7.84375 11.4375 7.25C12.1562 6.72917 12.8906 6.46875 13.6406 6.46875C14.5052 6.46875 15.1042 6.78646 15.4375 7.42188C15.5417 7.60938 15.5938 7.82292 15.5938 8.0625C15.5938 8.30208 15.4635 8.52083 15.2031 8.71875C14.9531 8.91667 14.7135 9.01562 14.4844 9.01562C14.0573 9.01562 13.724 8.91667 13.4844 8.71875C13.099 8.39583 12.724 8.23438 12.3594 8.23438C11.9948 8.23438 11.6354 8.41146 11.2812 8.76562C10.9375 9.10938 10.6771 9.58333 10.5 10.1875C12.1354 11.1875 12.9531 12.5677 12.9531 14.3281C12.9531 15.724 12.3854 16.9115 11.25 17.8906C10.0729 18.8906 8.63542 19.3906 6.9375 19.3906C5.98958 19.3906 5.15625 19.25 4.4375 18.9688ZM4.9375 17.125C5.28125 17.5104 5.67188 17.8073 6.10938 18.0156C6.55729 18.2135 6.99479 18.3125 7.42188 18.3125C7.85938 18.3125 8.24479 18.2396 8.57812 18.0938C8.92188 17.9479 9.21875 17.7292 9.46875 17.4375C10 16.8125 10.2656 16.0365 10.2656 15.1094C10.2656 14.1823 10.1823 13.4479 10.0156 12.9062C9.85938 12.3542 9.625 11.8854 9.3125 11.5C8.67708 10.7188 7.80208 10.3281 6.6875 10.3281C5.40625 10.3281 4.52083 10.9896 4.03125 12.3125C3.88542 12.7292 3.8125 13.2552 3.8125 13.8906C3.8125 14.5156 3.91146 15.1146 4.10938 15.6875C4.31771 16.25 4.59375 16.7292 4.9375 17.125ZM4.73438 23.375C3.25521 23.9479 2.51562 24.9479 2.51562 26.375C2.51562 27.3021 3.01562 28.1146 4.01562 28.8125C5.07812 29.5521 6.41667 29.9219 8.03125 29.9219C10.3854 29.9219 11.8646 29.4062 12.4688 28.375C12.6875 28.0104 12.7969 27.5885 12.7969 27.1094C12.7969 26.6302 12.7188 26.224 12.5625 25.8906C12.4062 25.5573 12.125 25.2604 11.7188 25C10.8958 24.4583 9.45833 24.0573 7.40625 23.7969C6.05208 23.6406 5.16146 23.5 4.73438 23.375ZM17.0469 24.2344C16.349 24.2344 16 24.0417 16 23.6562C16 23.3542 16.1927 23.2031 16.5781 23.2031L17.3594 23.2812C17.599 23.2812 17.7969 23.2396 17.9531 23.1562C18.1094 23.0625 18.2292 22.8698 18.3125 22.5781C18.4792 22.0469 18.5625 20.8698 18.5625 19.0469V14.375C18.5625 13.3125 18.4948 12.651 18.3594 12.3906C18.2344 12.1198 18.0781 11.9375 17.8906 11.8438C17.7135 11.7396 17.4167 11.6562 17 11.5938C16.5938 11.5312 16.3906 11.3698 16.3906 11.1094C16.3906 10.8698 16.6562 10.6979 17.1875 10.5938C18.4271 10.3333 19.2812 10.0729 19.75 9.8125C20.3854 9.44792 20.8177 9.26562 21.0469 9.26562C21.2865 9.26562 21.4062 9.38542 21.4062 9.625C21.4062 9.73958 21.3802 9.85938 21.3281 9.98438C21.2865 10.1094 21.2396 10.2604 21.1875 10.4375C21.1042 10.7917 21.0417 11.4583 21 12.4375C21.9062 10.9167 23 9.96875 24.2812 9.59375C24.6562 9.47917 25.0729 9.42188 25.5312 9.42188C26 9.42188 26.4115 9.58854 26.7656 9.92188C27.1302 10.2552 27.3125 10.6094 27.3125 10.9844C27.3125 11.3594 27.2708 11.6354 27.1875 11.8125C27.1042 11.9896 27 12.1406 26.875 12.2656C26.6042 12.5365 26.3594 12.6719 26.1406 12.6719C25.9323 12.6719 25.7708 12.6198 25.6562 12.5156C25.5417 12.401 25.4115 12.1979 25.2656 11.9062C25.0052 11.3854 24.7135 11.125 24.3906 11.125C24.0677 11.125 23.7604 11.1979 23.4688 11.3438C23.1771 11.4792 22.8854 11.6875 22.5938 11.9688C21.9583 12.5625 21.4219 13.3698 20.9844 14.3906V19.0469C20.9844 21.026 21.0365 22.1927 21.1406 22.5469C21.2552 22.8906 21.3906 23.099 21.5469 23.1719C21.7135 23.2344 21.9375 23.2656 22.2188 23.2656L23.6094 23.1406C23.8177 23.1406 23.9844 23.1927 24.1094 23.2969C24.2344 23.3906 24.2969 23.5104 24.2969 23.6562C24.2969 24.0417 23.9167 24.2344 23.1562 24.2344L19.8594 24C19.3281 24 18.8229 24.0365 18.3438 24.1094C17.875 24.1927 17.4427 24.2344 17.0469 24.2344ZM43.125 21.9062C43.4271 21.9062 43.5781 22.0469 43.5781 22.3281C43.5781 22.599 43.276 22.8594 42.6719 23.1094C42.0677 23.3594 41.6458 23.5885 41.4062 23.7969C41.1667 23.9948 40.9896 24.1406 40.875 24.2344C40.7604 24.3385 40.625 24.3906 40.4688 24.3906C40.1562 24.3906 39.8958 24.2604 39.6875 24C39.4792 23.7396 39.1979 23.1823 38.8438 22.3281C38.25 23.0052 37.526 23.5208 36.6719 23.875C35.8281 24.2188 34.9896 24.3906 34.1562 24.3906C32.5833 24.3906 31.3646 23.9896 30.5 23.1875C29.6354 22.3854 29.2031 21.2865 29.2031 19.8906C29.2031 18.4948 29.8542 17.3646 31.1562 16.5C32.4688 15.625 34.1406 15.1875 36.1719 15.1875C36.776 15.1875 37.5729 15.2917 38.5625 15.5V14.2812C38.5625 11.6042 37.4323 10.2656 35.1719 10.2656C33.974 10.2656 33.0938 10.8177 32.5312 11.9219C32.0417 12.9115 31.5625 13.4062 31.0938 13.4062C30.75 13.4062 30.4479 13.3073 30.1875 13.1094C29.9375 12.9115 29.8125 12.6615 29.8125 12.3594C29.8125 12.0573 29.9688 11.724 30.2812 11.3594C30.5938 10.9844 31.0104 10.6458 31.5312 10.3438C32.7604 9.625 34.1094 9.26562 35.5781 9.26562C38.1823 9.26562 39.8646 10.1146 40.625 11.8125C40.9062 12.4167 41.0469 13.1562 41.0469 14.0312V20.2656C41.0469 21.0677 41.125 21.5833 41.2812 21.8125C41.4375 22.0417 41.6562 22.1562 41.9375 22.1562C42.2188 22.1562 42.4479 22.1146 42.625 22.0312C42.8021 21.9479 42.9688 21.9062 43.125 21.9062ZM38.5625 16.9531C37.8125 16.526 36.8646 16.3125 35.7188 16.3125C34.5729 16.3125 33.651 16.599 32.9531 17.1719C32.2656 17.7448 31.9219 18.5156 31.9219 19.4844C31.9219 20.4427 32.1875 21.2448 32.7188 21.8906C33.25 22.526 33.9323 22.8438 34.7656 22.8438C36.5469 22.8438 37.8281 22.2604 38.6094 21.0938C38.5781 20.8021 38.5625 20.4792 38.5625 20.125V16.9531ZM45.7188 24.2344C45.0312 24.2344 44.6875 24.0417 44.6875 23.6562C44.6875 23.3542 44.8802 23.2031 45.2656 23.2031L46.0469 23.2812C46.2865 23.2812 46.4844 23.2396 46.6406 23.1562C46.7969 23.0625 46.9167 22.8698 47 22.5781C47.1667 22.0469 47.25 20.8698 47.25 19.0469V14.375C47.25 13.3333 47.1823 12.6771 47.0469 12.4062C46.9115 12.125 46.75 11.9375 46.5625 11.8438C46.3854 11.7396 46.0938 11.6562 45.6875 11.5938C45.2812 11.5312 45.0781 11.3698 45.0781 11.1094C45.0781 10.8698 45.3438 10.6979 45.875 10.5938C47.1146 10.3333 47.9688 10.0729 48.4375 9.8125C49.0729 9.44792 49.5052 9.26562 49.7344 9.26562C49.974 9.26562 50.0938 9.38542 50.0938 9.625C50.0938 9.73958 50.0677 9.85938 50.0156 9.98438C49.974 10.1094 49.9271 10.2604 49.875 10.4375C49.8021 10.7188 49.7448 11.2604 49.7031 12.0625C50.6302 10.7188 51.7917 9.84896 53.1875 9.45312C53.6354 9.32812 54.0833 9.26562 54.5312 9.26562C56.9688 9.26562 58.474 10.349 59.0469 12.5156C59.974 10.974 61.1979 9.96875 62.7188 9.5C63.1979 9.34375 63.6823 9.26562 64.1719 9.26562C65.6927 9.26562 66.8698 9.70833 67.7031 10.5938C68.5365 11.4792 68.9531 12.8594 68.9531 14.7344V19.0469C68.9531 20.8698 69.0156 21.9896 69.1406 22.4062C69.2656 22.8125 69.4062 23.0625 69.5625 23.1562C69.7188 23.2396 69.9167 23.2812 70.1562 23.2812L70.9375 23.2031C71.3229 23.2031 71.5156 23.3542 71.5156 23.6562C71.5156 24.0417 71.1667 24.2344 70.4688 24.2344C70.0729 24.2344 69.651 24.1927 69.2031 24.1094C68.7552 24.0365 68.2708 24 67.75 24C67.2396 24 66.75 24.0365 66.2812 24.1094C65.8229 24.1927 65.3958 24.2344 65 24.2344C64.3021 24.2344 63.9531 24.0417 63.9531 23.6562C63.9531 23.3542 64.1458 23.2031 64.5312 23.2031L65.3125 23.2812C65.5521 23.2812 65.75 23.2396 65.9062 23.1562C66.0625 23.0625 66.1875 22.8698 66.2812 22.5781C66.4479 22.0573 66.5312 20.8802 66.5312 19.0469V15.4844C66.5312 13.2031 65.9167 11.8125 64.6875 11.3125C64.2917 11.1562 63.8646 11.0781 63.4062 11.0781C62.9583 11.0781 62.5365 11.1615 62.1406 11.3281C61.7448 11.4844 61.375 11.7188 61.0312 12.0312C60.2708 12.7083 59.6979 13.6042 59.3125 14.7188V19.0469C59.3125 20.8698 59.375 21.9896 59.5 22.4062C59.625 22.8125 59.7656 23.0625 59.9219 23.1562C60.0781 23.2396 60.276 23.2812 60.5156 23.2812L61.2969 23.2031C61.6823 23.2031 61.875 23.3542 61.875 23.6562C61.875 24.0417 61.526 24.2344 60.8281 24.2344C60.4323 24.2344 60.0104 24.1927 59.5625 24.1094C59.1146 24.0365 58.6302 24 58.1094 24C57.599 24 57.1094 24.0365 56.6406 24.1094C56.1823 24.1927 55.7552 24.2344 55.3594 24.2344C54.6615 24.2344 54.3125 24.0417 54.3125 23.6562C54.3125 23.3542 54.5052 23.2031 54.8906 23.2031L55.6719 23.2812C55.9115 23.2812 56.1094 23.2396 56.2656 23.1562C56.4219 23.0625 56.5469 22.8698 56.6406 22.5781C56.8073 22.0573 56.8906 20.8802 56.8906 19.0469V15.4844C56.8906 13.2031 56.2812 11.8125 55.0625 11.3125C54.6562 11.1562 54.224 11.0781 53.7656 11.0781C53.3177 11.0781 52.8958 11.1615 52.5 11.3281C52.1042 11.4844 51.7292 11.7188 51.375 12.0312C50.625 12.7083 50.0573 13.6042 49.6719 14.7188V19.0469C49.6719 20.8698 49.7344 21.9896 49.8594 22.4062C49.9844 22.8125 50.125 23.0625 50.2812 23.1562C50.4375 23.2396 50.6354 23.2812 50.875 23.2812L51.6562 23.2031C52.0417 23.2031 52.2344 23.3542 52.2344 23.6562C52.2344 24.0417 51.8906 24.2344 51.2031 24.2344C50.8073 24.2344 50.3958 24.1927 49.9688 24.1094C49.5417 24.0365 49.0521 24 48.5 24C47.9479 24 47.4427 24.0365 46.9844 24.1094C46.5365 24.1927 46.1146 24.2344 45.7188 24.2344ZM73.75 24.2344C73.0625 24.2344 72.7188 24.0417 72.7188 23.6562C72.7188 23.3542 72.9115 23.2031 73.2969 23.2031L74.0781 23.2812C74.3177 23.2812 74.5156 23.2396 74.6719 23.1562C74.8281 23.0625 74.9479 22.8698 75.0312 22.5781C75.1979 22.0469 75.2812 20.8698 75.2812 19.0469V14.375C75.2812 13.3333 75.2135 12.6771 75.0781 12.4062C74.9427 12.125 74.7812 11.9375 74.5938 11.8438C74.4167 11.7396 74.125 11.6562 73.7188 11.5938C73.3125 11.5312 73.1094 11.3698 73.1094 11.1094C73.1094 10.8698 73.375 10.6979 73.9062 10.5938C75.1458 10.3333 76 10.0729 76.4688 9.8125C77.1042 9.44792 77.5365 9.26562 77.7656 9.26562C78.0052 9.26562 78.125 9.38542 78.125 9.625C78.125 9.73958 78.099 9.85938 78.0469 9.98438C78.0052 10.1094 77.9583 10.2604 77.9062 10.4375C77.8333 10.7188 77.776 11.2604 77.7344 12.0625C78.6615 10.7188 79.8229 9.84896 81.2188 9.45312C81.6667 9.32812 82.1146 9.26562 82.5625 9.26562C85 9.26562 86.5052 10.349 87.0781 12.5156C88.0052 10.974 89.2292 9.96875 90.75 9.5C91.2292 9.34375 91.7135 9.26562 92.2031 9.26562C93.724 9.26562 94.901 9.70833 95.7344 10.5938C96.5677 11.4792 96.9844 12.8594 96.9844 14.7344V19.0469C96.9844 20.8698 97.0469 21.9896 97.1719 22.4062C97.2969 22.8125 97.4375 23.0625 97.5938 23.1562C97.75 23.2396 97.9479 23.2812 98.1875 23.2812L98.9688 23.2031C99.3542 23.2031 99.5469 23.3542 99.5469 23.6562C99.5469 24.0417 99.1979 24.2344 98.5 24.2344C98.1042 24.2344 97.6823 24.1927 97.2344 24.1094C96.7865 24.0365 96.3021 24 95.7812 24C95.2708 24 94.7812 24.0365 94.3125 24.1094C93.8542 24.1927 93.4271 24.2344 93.0312 24.2344C92.3333 24.2344 91.9844 24.0417 91.9844 23.6562C91.9844 23.3542 92.1771 23.2031 92.5625 23.2031L93.3438 23.2812C93.5833 23.2812 93.7812 23.2396 93.9375 23.1562C94.0938 23.0625 94.2188 22.8698 94.3125 22.5781C94.4792 22.0573 94.5625 20.8802 94.5625 19.0469V15.4844C94.5625 13.2031 93.9479 11.8125 92.7188 11.3125C92.3229 11.1562 91.8958 11.0781 91.4375 11.0781C90.9896 11.0781 90.5677 11.1615 90.1719 11.3281C89.776 11.4844 89.4062 11.7188 89.0625 12.0312C88.3021 12.7083 87.7292 13.6042 87.3438 14.7188V19.0469C87.3438 20.8698 87.4062 21.9896 87.5312 22.4062C87.6562 22.8125 87.7969 23.0625 87.9531 23.1562C88.1094 23.2396 88.3073 23.2812 88.5469 23.2812L89.3281 23.2031C89.7135 23.2031 89.9062 23.3542 89.9062 23.6562C89.9062 24.0417 89.5573 24.2344 88.8594 24.2344C88.4635 24.2344 88.0417 24.1927 87.5938 24.1094C87.1458 24.0365 86.6615 24 86.1406 24C85.6302 24 85.1406 24.0365 84.6719 24.1094C84.2135 24.1927 83.7865 24.2344 83.3906 24.2344C82.6927 24.2344 82.3438 24.0417 82.3438 23.6562C82.3438 23.3542 82.5365 23.2031 82.9219 23.2031L83.7031 23.2812C83.9427 23.2812 84.1406 23.2396 84.2969 23.1562C84.4531 23.0625 84.5781 22.8698 84.6719 22.5781C84.8385 22.0573 84.9219 20.8802 84.9219 19.0469V15.4844C84.9219 13.2031 84.3125 11.8125 83.0938 11.3125C82.6875 11.1562 82.2552 11.0781 81.7969 11.0781C81.349 11.0781 80.9271 11.1615 80.5312 11.3281C80.1354 11.4844 79.7604 11.7188 79.4062 12.0312C78.6562 12.7083 78.0885 13.6042 77.7031 14.7188V19.0469C77.7031 20.8698 77.7656 21.9896 77.8906 22.4062C78.0156 22.8125 78.1562 23.0625 78.3125 23.1562C78.4688 23.2396 78.6667 23.2812 78.9062 23.2812L79.6875 23.2031C80.0729 23.2031 80.2656 23.3542 80.2656 23.6562C80.2656 24.0417 79.9219 24.2344 79.2344 24.2344C78.8385 24.2344 78.4271 24.1927 78 24.1094C77.5729 24.0365 77.0833 24 76.5312 24C75.9792 24 75.474 24.0365 75.0156 24.1094C74.5677 24.1927 74.1458 24.2344 73.75 24.2344ZM115.344 21.9062C115.646 21.9062 115.797 22.0469 115.797 22.3281C115.797 22.599 115.495 22.8594 114.891 23.1094C114.286 23.3594 113.865 23.5885 113.625 23.7969C113.385 23.9948 113.208 24.1406 113.094 24.2344C112.979 24.3385 112.844 24.3906 112.688 24.3906C112.375 24.3906 112.115 24.2604 111.906 24C111.698 23.7396 111.417 23.1823 111.062 22.3281C110.469 23.0052 109.745 23.5208 108.891 23.875C108.047 24.2188 107.208 24.3906 106.375 24.3906C104.802 24.3906 103.583 23.9896 102.719 23.1875C101.854 22.3854 101.422 21.2865 101.422 19.8906C101.422 18.4948 102.073 17.3646 103.375 16.5C104.688 15.625 106.359 15.1875 108.391 15.1875C108.995 15.1875 109.792 15.2917 110.781 15.5V14.2812C110.781 11.6042 109.651 10.2656 107.391 10.2656C106.193 10.2656 105.312 10.8177 104.75 11.9219C104.26 12.9115 103.781 13.4062 103.312 13.4062C102.969 13.4062 102.667 13.3073 102.406 13.1094C102.156 12.9115 102.031 12.6615 102.031 12.3594C102.031 12.0573 102.188 11.724 102.5 11.3594C102.812 10.9844 103.229 10.6458 103.75 10.3438C104.979 9.625 106.328 9.26562 107.797 9.26562C110.401 9.26562 112.083 10.1146 112.844 11.8125C113.125 12.4167 113.266 13.1562 113.266 14.0312V20.2656C113.266 21.0677 113.344 21.5833 113.5 21.8125C113.656 22.0417 113.875 22.1562 114.156 22.1562C114.438 22.1562 114.667 22.1146 114.844 22.0312C115.021 21.9479 115.188 21.9062 115.344 21.9062ZM110.781 16.9531C110.031 16.526 109.083 16.3125 107.938 16.3125C106.792 16.3125 105.87 16.599 105.172 17.1719C104.484 17.7448 104.141 18.5156 104.141 19.4844C104.141 20.4427 104.406 21.2448 104.938 21.8906C105.469 22.526 106.151 22.8438 106.984 22.8438C108.766 22.8438 110.047 22.2604 110.828 21.0938C110.797 20.8021 110.781 20.4792 110.781 20.125V16.9531ZM118.078 24.2344C117.401 24.2344 117.062 24.0417 117.062 23.6562C117.062 23.3542 117.25 23.2031 117.625 23.2031L118.391 23.2812C119.016 23.2812 119.438 22.9323 119.656 22.2344C119.833 21.6406 119.922 20.5781 119.922 19.0469V8.01562C119.922 6.48438 119.849 5.48438 119.703 5.01562C119.557 4.53646 119.38 4.21354 119.172 4.04688C118.974 3.86979 118.714 3.78125 118.391 3.78125L117.625 3.84375C117.25 3.84375 117.062 3.69271 117.062 3.39062C117.062 3.00521 117.349 2.8125 117.922 2.8125C118.495 2.8125 119.036 2.85417 119.547 2.9375C120.068 3.02083 120.609 3.0625 121.172 3.0625C121.734 3.0625 122.271 3.02083 122.781 2.9375C123.302 2.85417 123.964 2.8125 124.766 2.8125C125.578 2.8125 126.448 2.94271 127.375 3.20312C128.302 3.46354 129.083 3.83333 129.719 4.3125C131.042 5.30208 131.703 6.61458 131.703 8.25C131.703 10.0625 130.958 11.625 129.469 12.9375C128.99 13.3542 128.458 13.7083 127.875 14L132.953 21.375C133.526 22.2188 134.156 22.7292 134.844 22.9062C135.042 22.9583 135.292 23 135.594 23.0312C136.125 23.0833 136.391 23.2604 136.391 23.5625C136.391 23.8542 136.104 24 135.531 24H132.531C131.812 24 131.161 23.5312 130.578 22.5938L126.641 16.2969C126.286 15.7448 125.948 15.3542 125.625 15.125C125.302 14.8854 124.802 14.7656 124.125 14.7656C123.458 14.7656 122.875 14.7812 122.375 14.8125V19.0469C122.375 20.6198 122.443 21.6354 122.578 22.0938C122.724 22.5417 122.896 22.8542 123.094 23.0312C123.302 23.1979 123.573 23.2812 123.906 23.2812L124.656 23.2031C125.031 23.2031 125.219 23.3542 125.219 23.6562C125.219 24.0417 124.885 24.2344 124.219 24.2344C123.875 24.2344 123.51 24.2031 123.125 24.1406C121.875 23.9427 120.802 23.9062 119.906 24.0312C119.021 24.1667 118.411 24.2344 118.078 24.2344ZM122.375 13.4375C123.052 13.5104 123.703 13.5469 124.328 13.5469H125.312C126.323 13.5469 127.177 13.2031 127.875 12.5156C128.688 11.7135 129.094 10.6198 129.094 9.23438C129.094 7.56771 128.589 6.25 127.578 5.28125C126.63 4.36458 125.411 3.90625 123.922 3.90625C123.391 3.90625 123 3.97917 122.75 4.125C122.5 4.27083 122.375 4.52083 122.375 4.875V13.4375ZM139.5 22.25C138.896 21.5729 138.427 20.776 138.094 19.8594C137.771 18.9427 137.609 17.9271 137.609 16.8125C137.609 15.6875 137.802 14.6562 138.188 13.7188C138.573 12.7812 139.104 11.9792 139.781 11.3125C141.188 9.92708 142.922 9.23438 144.984 9.23438C146.693 9.23438 148.073 9.79688 149.125 10.9219C150.125 12.0052 150.625 13.3438 150.625 14.9375C150.625 15.4583 150.552 15.8177 150.406 16.0156C150.271 16.2031 150.099 16.3177 149.891 16.3594C149.682 16.3906 149.396 16.4219 149.031 16.4531C148.667 16.474 148.224 16.5 147.703 16.5312C147.182 16.5625 146.599 16.5938 145.953 16.625C145.318 16.6562 144.667 16.6927 144 16.7344C142.469 16.8281 141.24 16.9219 140.312 17.0156C140.542 19.8177 141.615 21.6354 143.531 22.4688C144.156 22.7396 144.823 22.875 145.531 22.875C147.031 22.875 148.219 22.4375 149.094 21.5625C149.469 21.1875 149.755 21 149.953 21C150.328 21 150.516 21.224 150.516 21.6719C150.516 21.901 150.359 22.1771 150.047 22.5C149.734 22.8229 149.286 23.1562 148.703 23.5C147.672 24.0938 146.469 24.3906 145.094 24.3906C143.719 24.3906 142.594 24.2031 141.719 23.8281C140.854 23.4427 140.115 22.9167 139.5 22.25ZM140.281 15.8594C145.167 15.6094 147.74 15.3438 148 15.0625C148.094 14.9583 148.141 14.651 148.141 14.1406C148.141 13.6302 148.042 13.1354 147.844 12.6562C147.646 12.1667 147.38 11.75 147.047 11.4062C146.359 10.7083 145.505 10.3594 144.484 10.3594C143.328 10.3594 142.354 10.8438 141.562 11.8125C140.729 12.8229 140.302 14.1719 140.281 15.8594ZM154.203 24.2344C153.505 24.2344 153.156 24.0417 153.156 23.6562C153.156 23.3542 153.349 23.2031 153.734 23.2031L154.359 23.2812C154.599 23.2812 154.792 23.2396 154.938 23.1562C155.094 23.0625 155.208 22.8698 155.281 22.5781C155.417 22.0885 155.484 20.9115 155.484 19.0469V10.8906L154.016 10.8594C153.839 10.8594 153.75 10.7604 153.75 10.5625C153.75 10.1771 153.812 9.92708 153.938 9.8125C154.073 9.6875 154.182 9.625 154.266 9.625H155.484V9.57812C155.484 5.21354 156.401 2.5 158.234 1.4375C158.87 1.0625 159.63 0.875 160.516 0.875C161.276 0.875 161.844 0.958333 162.219 1.125C162.604 1.28125 162.885 1.41146 163.062 1.51562C163.24 1.60938 163.406 1.71875 163.562 1.84375C163.917 2.15625 164.094 2.46354 164.094 2.76562C164.094 3.05729 163.995 3.29167 163.797 3.46875C163.599 3.63542 163.401 3.71875 163.203 3.71875C163.005 3.71875 162.849 3.71354 162.734 3.70312C162.62 3.68229 162.5 3.63542 162.375 3.5625C162.125 3.42708 161.88 3.22917 161.641 2.96875C161.411 2.69792 161.255 2.52083 161.172 2.4375C161.099 2.34375 161.01 2.26562 160.906 2.20312C160.667 2.06771 160.333 2 159.906 2C159.49 2 159.156 2.15104 158.906 2.45312C158.667 2.74479 158.479 3.19792 158.344 3.8125C158.135 4.80208 158.031 6.64583 158.031 9.34375V9.625H161.312C161.646 9.625 161.812 9.76562 161.812 10.0469C161.812 10.3802 161.74 10.625 161.594 10.7812C161.458 10.9271 161.349 11 161.266 11L158.031 10.9375V19.0156C158.031 20.9427 158.094 22.0938 158.219 22.4688C158.344 22.8438 158.49 23.0677 158.656 23.1406C158.833 23.2135 159.062 23.25 159.344 23.25L160.891 23.1406C161.359 23.1406 161.594 23.3229 161.594 23.6875C161.594 24.0521 161.214 24.2344 160.453 24.2344L156.859 24C156.328 24 155.839 24.0365 155.391 24.1094C154.953 24.1927 154.557 24.2344 154.203 24.2344ZM165.781 22.25C165.177 21.5729 164.708 20.776 164.375 19.8594C164.052 18.9427 163.891 17.9271 163.891 16.8125C163.891 15.6875 164.083 14.6562 164.469 13.7188C164.854 12.7812 165.385 11.9792 166.062 11.3125C167.469 9.92708 169.203 9.23438 171.266 9.23438C172.974 9.23438 174.354 9.79688 175.406 10.9219C176.406 12.0052 176.906 13.3438 176.906 14.9375C176.906 15.4583 176.833 15.8177 176.688 16.0156C176.552 16.2031 176.38 16.3177 176.172 16.3594C175.964 16.3906 175.677 16.4219 175.312 16.4531C174.948 16.474 174.505 16.5 173.984 16.5312C173.464 16.5625 172.88 16.5938 172.234 16.625C171.599 16.6562 170.948 16.6927 170.281 16.7344C168.75 16.8281 167.521 16.9219 166.594 17.0156C166.823 19.8177 167.896 21.6354 169.812 22.4688C170.438 22.7396 171.104 22.875 171.812 22.875C173.312 22.875 174.5 22.4375 175.375 21.5625C175.75 21.1875 176.036 21 176.234 21C176.609 21 176.797 21.224 176.797 21.6719C176.797 21.901 176.641 22.1771 176.328 22.5C176.016 22.8229 175.568 23.1562 174.984 23.5C173.953 24.0938 172.75 24.3906 171.375 24.3906C170 24.3906 168.875 24.2031 168 23.8281C167.135 23.4427 166.396 22.9167 165.781 22.25ZM166.562 15.8594C171.448 15.6094 174.021 15.3438 174.281 15.0625C174.375 14.9583 174.422 14.651 174.422 14.1406C174.422 13.6302 174.323 13.1354 174.125 12.6562C173.927 12.1667 173.661 11.75 173.328 11.4062C172.641 10.7083 171.786 10.3594 170.766 10.3594C169.609 10.3594 168.635 10.8438 167.844 11.8125C167.01 12.8229 166.583 14.1719 166.562 15.8594ZM179.859 24.2344C179.161 24.2344 178.812 24.0417 178.812 23.6562C178.812 23.3542 179.005 23.2031 179.391 23.2031L180.172 23.2812C180.411 23.2812 180.609 23.2396 180.766 23.1562C180.922 23.0625 181.042 22.8698 181.125 22.5781C181.292 22.0469 181.375 20.8698 181.375 19.0469V14.375C181.375 13.3125 181.307 12.651 181.172 12.3906C181.047 12.1198 180.891 11.9375 180.703 11.8438C180.526 11.7396 180.229 11.6562 179.812 11.5938C179.406 11.5312 179.203 11.3698 179.203 11.1094C179.203 10.8698 179.469 10.6979 180 10.5938C181.24 10.3333 182.094 10.0729 182.562 9.8125C183.198 9.44792 183.63 9.26562 183.859 9.26562C184.099 9.26562 184.219 9.38542 184.219 9.625C184.219 9.73958 184.193 9.85938 184.141 9.98438C184.099 10.1094 184.052 10.2604 184 10.4375C183.917 10.7917 183.854 11.4583 183.812 12.4375C184.719 10.9167 185.812 9.96875 187.094 9.59375C187.469 9.47917 187.885 9.42188 188.344 9.42188C188.812 9.42188 189.224 9.58854 189.578 9.92188C189.943 10.2552 190.125 10.6094 190.125 10.9844C190.125 11.3594 190.083 11.6354 190 11.8125C189.917 11.9896 189.812 12.1406 189.688 12.2656C189.417 12.5365 189.172 12.6719 188.953 12.6719C188.745 12.6719 188.583 12.6198 188.469 12.5156C188.354 12.401 188.224 12.1979 188.078 11.9062C187.818 11.3854 187.526 11.125 187.203 11.125C186.88 11.125 186.573 11.1979 186.281 11.3438C185.99 11.4792 185.698 11.6875 185.406 11.9688C184.771 12.5625 184.234 13.3698 183.797 14.3906V19.0469C183.797 21.026 183.849 22.1927 183.953 22.5469C184.068 22.8906 184.203 23.099 184.359 23.1719C184.526 23.2344 184.75 23.2656 185.031 23.2656L186.422 23.1406C186.63 23.1406 186.797 23.1927 186.922 23.2969C187.047 23.3906 187.109 23.5104 187.109 23.6562C187.109 24.0417 186.729 24.2344 185.969 24.2344L182.672 24C182.141 24 181.635 24.0365 181.156 24.1094C180.688 24.1927 180.255 24.2344 179.859 24.2344ZM193.594 22.25C192.99 21.5729 192.521 20.776 192.188 19.8594C191.865 18.9427 191.703 17.9271 191.703 16.8125C191.703 15.6875 191.896 14.6562 192.281 13.7188C192.667 12.7812 193.198 11.9792 193.875 11.3125C195.281 9.92708 197.016 9.23438 199.078 9.23438C200.786 9.23438 202.167 9.79688 203.219 10.9219C204.219 12.0052 204.719 13.3438 204.719 14.9375C204.719 15.4583 204.646 15.8177 204.5 16.0156C204.365 16.2031 204.193 16.3177 203.984 16.3594C203.776 16.3906 203.49 16.4219 203.125 16.4531C202.76 16.474 202.318 16.5 201.797 16.5312C201.276 16.5625 200.693 16.5938 200.047 16.625C199.411 16.6562 198.76 16.6927 198.094 16.7344C196.562 16.8281 195.333 16.9219 194.406 17.0156C194.635 19.8177 195.708 21.6354 197.625 22.4688C198.25 22.7396 198.917 22.875 199.625 22.875C201.125 22.875 202.312 22.4375 203.188 21.5625C203.562 21.1875 203.849 21 204.047 21C204.422 21 204.609 21.224 204.609 21.6719C204.609 21.901 204.453 22.1771 204.141 22.5C203.828 22.8229 203.38 23.1562 202.797 23.5C201.766 24.0938 200.562 24.3906 199.188 24.3906C197.812 24.3906 196.688 24.2031 195.812 23.8281C194.948 23.4427 194.208 22.9167 193.594 22.25ZM194.375 15.8594C199.26 15.6094 201.833 15.3438 202.094 15.0625C202.188 14.9583 202.234 14.651 202.234 14.1406C202.234 13.6302 202.135 13.1354 201.938 12.6562C201.74 12.1667 201.474 11.75 201.141 11.4062C200.453 10.7083 199.599 10.3594 198.578 10.3594C197.422 10.3594 196.448 10.8438 195.656 11.8125C194.823 12.8229 194.396 14.1719 194.375 15.8594ZM207.734 24.2344C207.047 24.2344 206.703 24.0417 206.703 23.6562C206.703 23.3542 206.896 23.2031 207.281 23.2031L208.109 23.2812C208.349 23.2812 208.547 23.2396 208.703 23.1562C208.859 23.0625 208.979 22.8698 209.062 22.5781C209.229 22.0469 209.312 20.8698 209.312 19.0469V14.375C209.312 13.3229 209.24 12.6667 209.094 12.4062C208.958 12.1354 208.792 11.9531 208.594 11.8594C208.396 11.7552 208.089 11.6719 207.672 11.6094C207.255 11.5365 207.047 11.3698 207.047 11.1094C207.047 10.8698 207.312 10.6979 207.844 10.5938C209.188 10.3125 210.083 10.0469 210.531 9.79688C211.146 9.44271 211.568 9.26562 211.797 9.26562C212.036 9.26562 212.156 9.38542 212.156 9.625C212.156 9.73958 212.135 9.85938 212.094 9.98438C211.896 10.4844 211.781 11.2917 211.75 12.4062C212.344 11.3958 213.083 10.6198 213.969 10.0781C214.865 9.53646 215.745 9.26562 216.609 9.26562C217.484 9.26562 218.224 9.375 218.828 9.59375C219.432 9.8125 219.948 10.1458 220.375 10.5938C221.25 11.5312 221.688 12.9115 221.688 14.7344V19.0469C221.688 20.8698 221.75 21.9896 221.875 22.4062C222 22.8125 222.141 23.0625 222.297 23.1562C222.453 23.2396 222.651 23.2812 222.891 23.2812L223.703 23.2031C224.089 23.2031 224.281 23.3542 224.281 23.6562C224.281 24.0417 223.932 24.2344 223.234 24.2344C222.828 24.2344 222.396 24.1927 221.938 24.1094C221.49 24.0365 221.005 24 220.484 24C219.974 24 219.484 24.0365 219.016 24.1094C218.547 24.1927 218.109 24.2344 217.703 24.2344C217.005 24.2344 216.656 24.0417 216.656 23.6562C216.656 23.3542 216.849 23.2031 217.234 23.2031L218.047 23.2812C218.286 23.2812 218.484 23.2396 218.641 23.1562C218.797 23.0625 218.922 22.8698 219.016 22.5781C219.182 22.0573 219.266 20.8802 219.266 19.0469V15.4844C219.266 12.5052 218.182 11.0156 216.016 11.0156C214.484 11.0156 213.292 11.7083 212.438 13.0938C212.135 13.6042 211.901 14.2292 211.734 14.9688V19.0469C211.734 20.8698 211.797 21.9896 211.922 22.4062C212.047 22.8125 212.188 23.0625 212.344 23.1562C212.5 23.2396 212.698 23.2812 212.938 23.2812L213.766 23.2031C214.151 23.2031 214.344 23.3542 214.344 23.6562C214.344 24.0417 214 24.2344 213.312 24.2344C212.917 24.2344 212.495 24.1927 212.047 24.1094C211.609 24.0365 211.115 24 210.562 24C210.01 24 209.5 24.0365 209.031 24.1094C208.573 24.1927 208.141 24.2344 207.734 24.2344ZM225.859 16.8438C225.859 15.7396 226.057 14.7188 226.453 13.7812C226.859 12.8333 227.406 12.026 228.094 11.3594C229.552 9.96354 231.391 9.26562 233.609 9.26562C234.922 9.30729 236.062 9.61458 237.031 10.1875C238.021 10.7604 238.536 11.4635 238.578 12.2969C238.578 12.7448 238.281 13.0417 237.688 13.1875C237.531 13.2188 237.391 13.2344 237.266 13.2344C236.786 13.2344 236.396 12.9062 236.094 12.25C235.5 11.0104 234.495 10.3906 233.078 10.3906C231.828 10.3906 230.781 10.9062 229.938 11.9375C229.042 13.0312 228.594 14.474 228.594 16.2656C228.594 18.2552 229.057 19.8542 229.984 21.0625C230.953 22.3333 232.276 22.9688 233.953 22.9688C235.099 22.9688 236.104 22.5312 236.969 21.6562C237.344 21.2812 237.625 21.0938 237.812 21.0938C238.198 21.0938 238.391 21.2865 238.391 21.6719C238.391 22.0469 238.021 22.5052 237.281 23.0469C236.083 23.9427 234.609 24.3906 232.859 24.3906C230.766 24.3906 229.062 23.6771 227.75 22.25C226.49 20.8646 225.859 19.0625 225.859 16.8438ZM242.562 22.25C241.958 21.5729 241.49 20.776 241.156 19.8594C240.833 18.9427 240.672 17.9271 240.672 16.8125C240.672 15.6875 240.865 14.6562 241.25 13.7188C241.635 12.7812 242.167 11.9792 242.844 11.3125C244.25 9.92708 245.984 9.23438 248.047 9.23438C249.755 9.23438 251.135 9.79688 252.188 10.9219C253.188 12.0052 253.688 13.3438 253.688 14.9375C253.688 15.4583 253.615 15.8177 253.469 16.0156C253.333 16.2031 253.161 16.3177 252.953 16.3594C252.745 16.3906 252.458 16.4219 252.094 16.4531C251.729 16.474 251.286 16.5 250.766 16.5312C250.245 16.5625 249.661 16.5938 249.016 16.625C248.38 16.6562 247.729 16.6927 247.062 16.7344C245.531 16.8281 244.302 16.9219 243.375 17.0156C243.604 19.8177 244.677 21.6354 246.594 22.4688C247.219 22.7396 247.885 22.875 248.594 22.875C250.094 22.875 251.281 22.4375 252.156 21.5625C252.531 21.1875 252.818 21 253.016 21C253.391 21 253.578 21.224 253.578 21.6719C253.578 21.901 253.422 22.1771 253.109 22.5C252.797 22.8229 252.349 23.1562 251.766 23.5C250.734 24.0938 249.531 24.3906 248.156 24.3906C246.781 24.3906 245.656 24.2031 244.781 23.8281C243.917 23.4427 243.177 22.9167 242.562 22.25ZM243.344 15.8594C248.229 15.6094 250.802 15.3438 251.062 15.0625C251.156 14.9583 251.203 14.651 251.203 14.1406C251.203 13.6302 251.104 13.1354 250.906 12.6562C250.708 12.1667 250.443 11.75 250.109 11.4062C249.422 10.7083 248.568 10.3594 247.547 10.3594C246.391 10.3594 245.417 10.8438 244.625 11.8125C243.792 12.8229 243.365 14.1719 243.344 15.8594Z" fill="#233142"/>
</svg>
